<?xml version="1.0" encoding="utf-8"?>
<!-- Generator: Adobe Illustrator 26.2.1, SVG Export Plug-In . SVG Version: 6.00 Build 0)  -->
<svg version="1.1" id="Layer_1" xmlns="http://www.w3.org/2000/svg" xmlns:xlink="http://www.w3.org/1999/xlink" x="0px" y="0px"
	 viewBox="0 0 839.7 261.8" style="enable-background:new 0 0 839.7 261.8;" xml:space="preserve">
<style type="text/css">
	.st0{fill:#3F4473;}
	.st1{fill:#ED6939;}
	.st2{fill:#61C9D7;}
	.st3{enable-background:new    ;}
</style>
<g id="ECFMG_Text_00000101095826150877931620000016184844879155438992_">
	<path class="st0" d="M369.6,158.6c0,1.3-0.3,2.8-0.8,4.9c-2.5,9.7-2,19.5-7.2,23.1c-1.4,0.9-3,1.3-5.2,1.3
		c-4.5,0-12.1-1.3-27.9-1.3h-43.2c-3.1,0-5.5-0.9-5.5-3.5c0-2,1.9-3.1,3.5-4.1c3-1.7,4.2-3.1,5.3-5.7c0.9-2.2,1.9-5.3,1.9-16.2V96.5
		c0-7.2,0-11.1-4.6-14c-2.4-1.4-5-2-5-4.7c0-1.7,1.6-3.3,4.7-3.3h41.1c17.4,0,28.3-1.1,32-1.1c3.9,0,5.5,2,5.6,5
		c0.2,2.5,0.2,7.7,0.2,10.8c0,3,0.5,8.6,0.5,11.8c0,3.6-2.2,5-5,5c-3.6,0-4.6-1.1-6.7-6.1c-1.3-2.7-2.8-8.5-8.6-11.8
		c-4.9-2.8-12.4-3.3-22.6-3.3h-6.9c-3.1,0-3.8,1.3-3.8,3.8v29.7c0,3.9,3,4.1,6.9,4.1h0.9c3.6,0,7.8-0.2,11.8-0.5
		c6.9-0.5,11.8-0.9,14.9-0.9c3,0,5.2,0.6,5.2,3.5c0,0.9-0.2,2-0.3,3.1c-0.3,2.2,0,4.1-2,5.6c-1.1,0.8-3.3,1.1-6.3,1.1
		c-6.7,0-11.3-0.8-20.7-0.8c-2.7,0-5.8,0-8.2,0.2c-1.4,0.2-2.2,0.9-2.2,2.2v25.3c0,7.8,0.2,11.9,3,13.7c1.6,0.9,5.2,1.3,8.9,1.3
		c5,0,10.2-0.5,13.2-1.1c10.7-2.2,14.8-6.7,20.9-16.2c2.3-3.6,4.2-5.2,6.7-5.2c0.8,0,1.7,0.2,2.5,0.5
		C368.7,154.9,369.6,156.3,369.6,158.6"/>
	<path class="st0" d="M451.9,158.5c2.7-4.2,4.1-5.6,6.7-5.6c4.6,0,5.7,3.1,5.7,8.8v1.1c-0.3,10.2-2.2,14.9-6.9,18.4
		c-5.8,4.2-18,7.2-30.6,7.2c-37.8,0-58.2-28.6-58.2-57.3c0-29.2,21-58.4,60.7-58.4c11.1,0,21.2,2.4,26.5,5.7
		c6.6,4.1,6.6,7.7,6.6,15.2v1.6c0,7.8-1.1,10.7-5.3,10.7c-3.6,0-4.7-1.6-6.6-4.7c-2-3.3-4.6-8.5-10.5-12.9c-4.1-3-9.1-4.7-14.8-4.7
		c-19.5,0-33.6,19.2-33.6,45.4c0,1.7,0,3.5,0.2,5.2c2,29.2,18.4,42.7,34.7,42.7c7.1,0,13-2.7,17.6-7.4
		C447.3,165.8,449.5,162.4,451.9,158.5"/>
	<path class="st0" d="M545.1,106.1c-2.5,0-3.9-1.1-5.6-5.6c-1.7-4.2-3.6-9.1-9.1-12.2c-5.8-3.3-14.9-3.3-27.8-3.3h-1.7
		c-3.1,0-3.8,1.3-3.8,3.8v33.9c0,3.1,0.9,4.4,4.1,4.4c3.9,0,10,0,15.5-0.3c7.1-0.5,11.9-1.1,15.1-1.1c1.7,0,2.8,0.2,3.8,0.8
		c0.9,0.6,1.3,1.6,1.3,2.7c0,0.9-0.2,2-0.3,3.1c-0.3,2.2-0.3,4.4-2,5.7c-1.3,0.9-3.5,1.1-6.4,1.1c-6.3,0-11.5-0.8-20.6-0.8
		c-2.5,0-5.6,0-8.2,0.2c-1.4,0.2-2.2,0.8-2.2,2.2v16.8c0,10.8,0.8,14,1.7,16.2c0.9,2.2,2.7,4.1,5.3,5.7c1.9,1.1,3.5,2,3.5,4.1
		c0,2.4-2.4,3.5-5.5,3.5H471c-3.1,0-5.5-1.1-5.5-3.5c0-2,1.6-3,3.5-4.1c2.7-1.6,4.4-3.5,5.3-5.7s1.9-5.3,1.9-16.2V94.8
		c0-6.7-0.3-9.7-4.6-12.2c-2.4-1.4-5-2-5-4.7c0-1.9,1.6-3.3,4.7-3.3h41.1c16.2,0,26.2-1.1,31.4-1.1c3.6,0,6,0.9,6.1,5l0.5,11
		c0.2,3.5,0.3,7.4,0.3,11C550.7,105.1,548.5,106.1,545.1,106.1"/>
	<path class="st0" d="M684.3,183.1c0,2.4-2.2,3.5-5.3,3.5h-31.2c-3.1,0-5.3-1.1-5.3-3.5c0-2,1.6-3,3.5-4.1c2.7-1.4,4.4-3.5,5.2-5.6
		c0.9-2.2,1.9-5.3,1.9-20.9V94.1c0-0.5-0.3-0.8-0.6-0.8s-0.6,0.2-0.8,0.6l-30.9,71.6c-1.1,2.5-1.7,2.8-3.6,2.8h-5.5
		c-2.2,0-2.8-0.5-3.8-2.8l-30.8-71.7c-0.2-0.3-0.3-0.5-0.6-0.5c-0.5,0-0.8,0.3-0.8,0.8c0,5.6,0,48.6,0.5,64.2
		c0.5,14.4,4.7,17.3,9.9,19.8c2.7,1.3,5.6,2.2,5.6,4.9c0,2.3-2.2,3.6-5.6,3.6H559c-4.1,0-6-1.3-6-3.5c0-3.1,3.6-3.6,6.1-6.7
		c3.3-4.1,5-10.7,5.2-27.6c0.2-13.5,0.2-55.4,0.2-58.8c0-1.4,0-3.1-0.6-4.2s-1.7-1.9-3.6-2.7c-2.7-1.1-6-2-6-5c0-2.2,2-3.4,5.5-3.4
		h26c3.8,0,5,0.8,6,3.1l26.7,60.7c0.2,0.3,0.3,0.6,0.8,0.6c0.3,0,0.6-0.2,0.8-0.5l26.4-60.7c1.1-2.4,2.7-3.3,4.9-3.3h27.3
		c3.1,0,4.7,1.4,4.7,3.1c0,2.8-2.5,3.1-5.3,4.9c-4.2,2.8-4.2,6.7-4.2,16.5v58.2c0,10.8,0.9,14,1.9,16.2c0.8,2.2,2.7,4.2,5.2,5.6
		C682.7,180.1,684.3,181.1,684.3,183.1"/>
	<path class="st0" d="M784.7,135.4c0,2.7-2.7,3.3-5.3,5c-4.2,2.8-4.2,6.6-4.2,16.5v14.3c0,3.3-0.8,4.7-3.1,6.6
		c-7.5,5.6-19.5,10.5-33.7,10.5c-34.7-0.2-57.3-24.3-57.3-57.9c0-31.5,24.6-57.7,59.8-57.7c10.5,0,20.9,1.7,27.5,5.6
		c5.3,3.3,6.4,8.3,6.4,15.7v3.5c-0.3,5.3-1.7,8.5-5.3,8.5c-3.3,0-4.6-2-6.3-4.9c-2.8-4.9-5.2-8.8-10.2-12.6c-4.4-3.3-9.3-5-15.2-5
		C718,83.5,704,101,704,126c0,28.1,13.8,51,36.3,51c4.1,0,8.2-0.8,10.2-1.7c3-1.3,3.6-2.8,3.6-5.3v-13c0-10.4-0.6-14.1-7.1-16.5
		c-3.1-1.1-6.3-1.7-6.3-4.9c0.2-1.9,1.7-3.1,5-3.1l34-0.2C783,132.3,784.7,133.5,784.7,135.4"/>
</g>
<g id="Icon_00000098210392394626745250000008683795512573993346_">
	<path class="st0" d="M125.4,249.5c-65.1,0-118.1-53-118.1-118.1s53-118.1,118.1-118.1s118.1,53,118.1,118.1
		S190.5,249.5,125.4,249.5 M125.4,19.4c-61.8,0-112,50.3-112,112s50.3,112,112,112s112-50.3,112-112S187.1,19.4,125.4,19.4"/>
	<path class="st0" d="M137.7,204.3h-25.8c-4.3,0-7.9-3.5-7.9-7.9v-30h5.4v30c0,1.4,1.1,2.5,2.5,2.5h25.8c1.4,0,2.5-1.1,2.5-2.5
		v-70.3c0-1.4-1.1-2.5-2.5-2.5h-25.8c-1.4,0-2.5,1.1-2.5,2.5v22.5H104v-22.5c0-4.3,3.5-7.9,7.9-7.9h25.8c4.3,0,7.9,3.5,7.9,7.9v70.3
		C145.5,200.8,142,204.3,137.7,204.3"/>
	<path class="st0" d="M124.9,107.8c-15.3,0-24.5-9.3-24.5-24.8c0-15.4,9.1-24.6,24.5-24.6s24.5,9.2,24.5,24.6
		C149.4,98.3,140,107.8,124.9,107.8 M124.9,63.9c-12.3,0-19.1,6.8-19.1,19.2c0,12.5,6.8,19.4,19.1,19.4c12.1,0,19.1-7.1,19.1-19.4
		C144,70.7,137.2,63.9,124.9,63.9"/>
	<path class="st1" d="M183,159.8h-29.6v-5.4H183c0.9,0,1.7-0.8,1.7-1.7v-27.4c0-0.9-0.8-1.7-1.7-1.7h-29.6v-5.4H183
		c3.9,0,7.1,3.2,7.1,7.1v27.4C190,156.6,186.9,159.8,183,159.8"/>
	<path class="st2" d="M132.2,159.8H66.6c-3.9,0-7.1-3.2-7.1-7.1v-27.4c0-3.9,3.2-7.1,7.1-7.1h29.6v5.4H66.6c-0.9,0-1.7,0.8-1.7,1.7
		v27.4c0,0.9,0.8,1.7,1.7,1.7h65.6V159.8z"/>
</g>
<g>
	<path class="st0" d="M470.6,233.3h-3.2l-2.5-7.3h-9.2l-2.2,7.3h-2.6l8.1-24.8h3.5L470.6,233.3z M464.2,223.7l-3.8-11.9l-3.8,11.9
		H464.2z"/>
	<path class="st0" d="M507.1,233.3h-3v-21.7l-8.1,21.7h-2.1l-8.1-21.7v21.7h-2.6v-24.8h4.6l7.5,19.8l7.3-19.8h4.5L507.1,233.3
		L507.1,233.3z"/>
	<path class="st0" d="M525.1,227.8l2.7,0.5c-0.5,1.6-1.4,2.9-2.8,3.9s-3.1,1.5-5,1.5c-2.5,0-4.5-0.9-6.1-2.6
		c-1.6-1.8-2.3-4.1-2.3-6.9c0-2.9,0.8-5.3,2.4-7.1c1.6-1.8,3.6-2.7,6.1-2.7c2.4,0,4.3,0.8,5.8,2.5s2.2,4.1,2.2,7.5h-13.3
		c0,2.8,0.6,4.6,1.7,5.6c1.2,1,2.4,1.5,3.7,1.5C522.5,231.5,524.2,230.2,525.1,227.8z M525,222.3c0-1-0.2-1.9-0.5-2.7
		s-0.8-1.5-1.6-2c-0.8-0.6-1.7-0.8-2.7-0.8c-1.4,0-2.6,0.5-3.6,1.5s-1.5,2.4-1.7,4.1H525V222.3z"/>
	<path class="st0" d="M557,233.3h-2.8v-11.4c0-1.2-0.1-2.1-0.2-2.6c-0.2-0.6-0.6-1.1-1.2-1.6c-0.6-0.5-1.3-0.7-2.1-0.7
		c-1.1,0-2.1,0.5-3.2,1.5s-1.5,2.5-1.5,4.6v10.3h-2.8v-12.1c0-1.6-0.4-2.8-1.2-3.4s-1.6-1-2.4-1c-1.2,0-2.3,0.5-3.2,1.6
		c-0.9,1-1.3,2.4-1.3,4v11h-2.7v-18.4h2.5v3.5c1.4-2.7,3.3-4,5.7-4c1.3,0,2.4,0.4,3.4,1.3s1.5,1.9,1.8,3.1c1.3-2.9,3.2-4.4,5.8-4.4
		c1.2,0,2.3,0.4,3.3,1.1c0.9,0.7,1.6,1.5,1.8,2.5c0.3,0.9,0.4,2.2,0.4,3.9L557,233.3L557,233.3z"/>
	<path class="st0" d="M564.1,233.3h-1.4v-24.8h2.9v9.5c1.3-2.4,3.1-3.6,5.4-3.6c2.1,0,3.9,0.8,5.3,2.5c1.4,1.7,2.1,4.1,2.1,7.2
		c0,2.7-0.7,5-2.1,6.9c-1.4,1.8-3.2,2.8-5.5,2.8c-2.5,0-4.4-1.2-5.7-3.5L564.1,233.3z M565.5,226.1c0.1,1.9,0.7,3.3,1.7,4.1
		c1,0.9,2.1,1.3,3.3,1.3c1.5,0,2.6-0.6,3.5-1.9s1.3-3,1.3-5.2c0-2.4-0.4-4.2-1.3-5.6c-0.9-1.4-2.1-2-3.6-2c-1.2,0-2.3,0.5-3.3,1.4
		c-1,1-1.5,2.2-1.7,3.7L565.5,226.1L565.5,226.1z"/>
	<path class="st0" d="M594.8,227.8l2.7,0.5c-0.5,1.6-1.4,2.9-2.8,3.9s-3.1,1.5-5,1.5c-2.5,0-4.5-0.9-6.1-2.6
		c-1.6-1.8-2.3-4.1-2.3-6.9c0-2.9,0.8-5.3,2.4-7.1c1.6-1.8,3.6-2.7,6.1-2.7c2.4,0,4.3,0.8,5.8,2.5s2.2,4.1,2.2,7.5h-13.3
		c0,2.8,0.6,4.6,1.7,5.6c1.2,1,2.4,1.5,3.7,1.5C592.2,231.5,593.9,230.2,594.8,227.8z M594.7,222.3c0-1-0.2-1.9-0.5-2.7
		s-0.8-1.5-1.6-2c-0.8-0.6-1.7-0.8-2.7-0.8c-1.4,0-2.6,0.5-3.6,1.5s-1.5,2.4-1.7,4.1h10.1V222.3z"/>
	<path class="st0" d="M604.9,233.3H602v-18.4h2.5v4.3c0.9-2,1.8-3.3,2.7-3.9c0.9-0.6,1.8-0.9,2.7-0.9c0.3,0,0.7,0,1.1,0.1v2.7h-0.6
		c-1.6,0-2.9,0.6-3.9,1.8s-1.6,2.7-1.7,4.6v9.7H604.9z"/>
	<path class="st0" d="M630.2,233.8c-2.5,0-4.5-0.9-5.9-2.8c-1.4-1.9-2.1-4.2-2.1-7c0-2.9,0.8-5.3,2.4-7c1.6-1.7,3.6-2.6,5.9-2.6
		c2.5,0,4.5,0.9,6,2.8c1.5,1.8,2.2,4.1,2.2,6.9c0,2.9-0.8,5.2-2.4,7C634.8,232.9,632.7,233.8,630.2,233.8z M630.5,231.5
		c1.5,0,2.7-0.6,3.7-1.8s1.5-3.1,1.5-5.6s-0.5-4.4-1.5-5.5s-2.2-1.7-3.6-1.7c-1.4,0-2.6,0.6-3.6,1.7s-1.5,3-1.5,5.5
		c0,2.7,0.5,4.6,1.5,5.7S629,231.5,630.5,231.5z"/>
	<path class="st0" d="M650.6,214.9v2.2h-4.4v16.1h-2.9v-16.1h-3.1v-2.2h3.1c0-2.9,0.6-4.8,1.7-5.7c1.1-0.8,2.4-1.3,4-1.3
		c0.8,0,1.6,0.1,2.6,0.3v2.3c-0.6-0.2-1.2-0.2-1.8-0.2c-1.2,0-2.2,0.3-2.8,0.8c-0.6,0.6-0.9,1.6-0.9,3.1v0.7L650.6,214.9
		L650.6,214.9z"/>
	<path class="st0" d="M666.8,233.3h-3.1v-24.8h3.1V233.3z"/>
	<path class="st0" d="M687.2,233.3h-2.7v-11.8c0-1.7-0.4-2.9-1.1-3.6c-0.7-0.7-1.6-1-2.7-1c-1.5,0-2.7,0.6-3.7,1.7
		c-1,1.2-1.5,2.7-1.5,4.6v10.1h-2.9v-18.4h2.7v3.4c1.5-2.6,3.4-3.9,5.8-3.9c1.4,0,2.5,0.4,3.5,1.1c1,0.7,1.6,1.5,2,2.4
		s0.5,2.5,0.5,4.8v10.6H687.2z"/>
	<path class="st0" d="M701.3,231.4v2.3c-1,0.1-1.9,0.2-2.6,0.2c-3.6,0-5.3-1.9-5.3-5.6v-11.1h-3.3V215h3.3l0.1-4.6l2.7-0.3v4.9h4.1
		v2.2h-4.1v11.5c0,1.9,1,2.8,2.9,2.8C699.7,231.6,700.5,231.5,701.3,231.4z"/>
	<path class="st0" d="M715.9,227.8l2.7,0.5c-0.5,1.6-1.4,2.9-2.8,3.9s-3.1,1.5-5,1.5c-2.5,0-4.5-0.9-6.1-2.6
		c-1.6-1.8-2.3-4.1-2.3-6.9c0-2.9,0.8-5.3,2.4-7.1c1.6-1.8,3.6-2.7,6.1-2.7c2.4,0,4.3,0.8,5.8,2.5s2.2,4.1,2.2,7.5h-13.3
		c0,2.8,0.6,4.6,1.7,5.6c1.2,1,2.4,1.5,3.7,1.5C713.3,231.5,714.9,230.2,715.9,227.8z M715.7,222.3c0-1-0.2-1.9-0.5-2.7
		s-0.8-1.5-1.6-2c-0.8-0.6-1.7-0.8-2.7-0.8c-1.4,0-2.6,0.5-3.6,1.5s-1.5,2.4-1.7,4.1h10.1V222.3z"/>
	<path class="st0" d="M737.5,233.3h-2.8c-0.1-0.6-0.2-1.7-0.3-3.3c-1.3,2.5-3.4,3.8-6.4,3.8c-2.1,0-3.6-0.5-4.7-1.6
		c-1.1-1.1-1.7-2.4-1.7-3.9c0-1.9,0.8-3.4,2.4-4.6c1.6-1.2,4.3-1.8,8-1.8c0.5,0,1.3,0,2.4,0.1c0-1.5-0.1-2.5-0.3-3.2
		c-0.2-0.6-0.7-1.2-1.4-1.6c-0.7-0.4-1.7-0.6-2.9-0.6c-2.9,0-4.6,1.1-5.1,3.3l-2.6-0.5c0.6-3.4,3.3-5.1,8.1-5.1
		c2.5,0,4.3,0.6,5.4,1.7s1.6,3.1,1.6,5.8v7.8C737.1,231,737.3,232.2,737.5,233.3z M734.4,224.1c-1.2-0.1-2-0.1-2.7-0.1
		c-2.3,0-4,0.4-5.3,1.1c-1.2,0.7-1.9,1.8-1.9,3.2c0,0.9,0.3,1.7,1,2.3s1.6,0.9,2.9,0.9c1.7,0,3.1-0.6,4.2-1.9
		c1.1-1.3,1.7-2.7,1.7-4.4C734.4,225,734.4,224.6,734.4,224.1z"/>
	<path class="st0" d="M745.7,233.3h-2.9v-24.8h2.9V233.3z"/>
	<path class="st0" d="M759.7,231.4v2.3c-1,0.1-1.9,0.2-2.6,0.2c-3.6,0-5.3-1.9-5.3-5.6v-11.1h-3.3V215h3.3l0.1-4.6l2.7-0.3v4.9h4.1
		v2.2h-4.1v11.5c0,1.9,1,2.8,2.9,2.8C758.2,231.6,758.9,231.5,759.7,231.4z"/>
	<path class="st0" d="M777.2,233.3h-2.9v-11.1c0-1.3-0.1-2.3-0.2-2.9c-0.2-0.7-0.6-1.2-1.2-1.7c-0.6-0.5-1.3-0.7-2.1-0.7
		c-1.5,0-2.7,0.6-3.7,1.8s-1.5,2.8-1.5,4.8v9.9h-2.9v-24.8h2.9v9.8c1.3-2.6,3.2-3.9,5.6-3.9c1.1,0,2,0.2,2.9,0.6
		c0.8,0.4,1.5,1,1.9,1.7s0.8,1.4,0.9,2c0.2,0.7,0.2,1.8,0.2,3.4L777.2,233.3L777.2,233.3z"/>
</g>
<g class="st3">
	<path class="st0" d="M796.5,76.2c0-0.1,0-0.2,0.1-0.3c0.1-0.1,0.2-0.1,0.3-0.1h13.5c0.1,0,0.2,0,0.3,0.1c0.1,0.1,0.1,0.2,0.1,0.3
		v1.9c0,0.2-0.1,0.3-0.4,0.3h-4.6c-0.2,0-0.3,0.1-0.3,0.2v14.6c0,0.3-0.1,0.4-0.4,0.4h-2.9c-0.2,0-0.3-0.1-0.3-0.4V78.7
		c0-0.2-0.1-0.3-0.3-0.3h-4.8c-0.3,0-0.4-0.1-0.4-0.3V76.2z"/>
	<path class="st0" d="M813.6,93.2V76.3c0-0.3,0.1-0.4,0.4-0.4h4.1c0.2,0,0.3,0,0.3,0.1c0.1,0,0.1,0.1,0.2,0.3l4.2,11.3
		c0,0.1,0.1,0.2,0.2,0.2c0.1,0,0.1-0.1,0.2-0.2l4.1-11.2c0.1-0.3,0.3-0.5,0.5-0.5h4.2c0.2,0,0.3,0.1,0.3,0.4v16.9
		c0,0.3-0.2,0.5-0.5,0.5h-2.6c-0.2,0-0.3,0-0.3-0.1c-0.1-0.1-0.1-0.2-0.1-0.3V80.7c0-0.1,0-0.1-0.1-0.1c0,0-0.1,0.1-0.1,0.2
		l-4.6,12.6c-0.1,0.2-0.2,0.4-0.5,0.4h-1.7c-0.3,0-0.4-0.1-0.5-0.4l-4.5-12.5c0-0.1-0.1-0.2-0.1-0.2s-0.1,0.1-0.1,0.2v12.4
		c0,0.1,0,0.2-0.1,0.3c0,0.1-0.2,0.1-0.3,0.1h-2C813.7,93.7,813.6,93.5,813.6,93.2z"/>
</g>
</svg>
