<?xml version="1.0" encoding="UTF-8"?><svg id="Layer_1" xmlns="http://www.w3.org/2000/svg" xmlns:xlink="http://www.w3.org/1999/xlink" viewBox="0 0 791.23 223.74"><defs><style>.cls-1{fill:none;}.cls-2{clip-path:url(#clippath);}.cls-3{fill:#ed693a;}.cls-4{fill:#64c9d7;}.cls-5{fill:#3f4372;}</style><clipPath id="clippath"><rect class="cls-1" width="791.23" height="223.74"/></clipPath></defs><g class="cls-2"><path class="cls-5" d="M298.06,138.17c0,2.16-2.1,3.15-5.03,3.15h-28.31c-2.88,0-5.03-.99-5.03-3.15s1.6-2.76,3.15-3.76c2.13-1.16,3.85-2.96,4.92-5.14,1.47-4.85,1.99-9.93,1.55-14.98V58.12c0-6.8,0-9.79-3.87-12.11-2.43-1.55-4.86-1.88-4.86-4.42,0-1.6,1.27-2.88,4.31-2.88h27.64c3.04,0,4.48,1.11,4.48,2.88s-2.43,2.87-4.92,4.42c-3.59,2.32-3.87,5.53-3.87,12.11v56.17c-.44,5.16,.18,10.35,1.83,15.26,1.08,2.15,2.77,3.94,4.86,5.14,1.6,.72,3.15,1.44,3.15,3.48"/><path class="cls-5" d="M388.51,138c0,2.32-2.16,3.32-4.86,3.32h-27.64c-2.54,0-4.7-1-4.7-3.32s1.38-2.6,2.99-3.59c2.12-1.21,3.86-2.99,5.03-5.14,1.66-4.9,2.24-10.11,1.71-15.26v-20.12c0-9.78-5.14-15.54-13.49-15.54-4.02-.06-7.91,1.5-10.78,4.31-5.2,5.2-6.63,12.94-6.63,31.35-.6,5.24,0,10.56,1.77,15.53,1.06,2.17,2.75,3.97,4.86,5.14,1.88,1.16,3.04,1.88,3.04,3.59s-2.04,3.32-4.75,3.32h-27.31c-2.77,0-4.76-1-4.76-3.32s1.44-2.6,2.99-3.59c2.13-1.2,3.88-2.98,5.03-5.14,1.53-4.93,2.08-10.12,1.6-15.26v-22.11c.37-3.58-.02-7.2-1.16-10.62-1.02-1.97-2.86-3.38-5.03-3.87-1.44-.61-3.98-1.33-3.98-3.48s1.11-2.87,4.42-3.59c4.81-.91,9.53-2.27,14.1-4.04,1.72-.92,3.59-1.5,5.53-1.71,2.05,0,3.59,1,3.59,4.31v8.07c0,.44,0,.72,.61,.72s.44-.28,.72-.72c5.16-7.8,13.92-12.46,23.28-12.38,7.7-.32,15.05,3.2,19.63,9.4,3.43,5.86,4.97,12.64,4.42,19.4v20.29c-.58,5.26,0,10.58,1.71,15.59,1.09,2.17,2.8,3.96,4.92,5.14,1.88,.72,3.15,1.6,3.15,3.32"/><path class="cls-5" d="M439.37,127.83c-.13,1.58-.73,3.08-1.71,4.31-4.7,6.95-12.56,11.1-20.95,11.06-7.56,.39-14.71-3.44-18.58-9.95-2.59-5.52-3.73-11.61-3.32-17.69,0-11.06,1.16-25.15,1.16-35.49,0-.99-.44-1.44-1.44-1.44h-8.9c-1.03,.09-1.95-.67-2.04-1.7,0-.1-.01-.19,0-.29v-5.53c0-1.33,.72-1.88,2.05-2.15,5.43-.31,10.37-3.26,13.21-7.91,1.29-3.19,2.16-6.54,2.6-9.95,0-1.44,.99-1.99,2.16-1.99h7.74c.98-.06,1.82,.68,1.88,1.65,0,.08,0,.15,0,.23v14.21c0,3.15,.44,3.76,3.59,3.76,7.63,0,10.67-1.05,15.98-1.05,2.6,0,4.87,0,4.87,2.76,0,1-.44,1.99-.55,3.32-.61,4.15-2.43,5.03-6.63,5.03s-7.9-.61-15.81-.61c-.82-.06-1.54,.55-1.6,1.38,0,.08,0,.15,0,.23,0,5.53-.28,11.5-.28,17.25-.43,8.63,.3,17.27,2.16,25.71,1.35,4.24,5.28,7.12,9.73,7.13,6.3,0,8.9-4.86,11.89-4.86,1.33-.22,2.58,.68,2.8,2,.03,.2,.04,.4,.02,.59"/><path class="cls-5" d="M506.1,125.51c0,3.04-4.31,7.74-9.23,11.06-6.64,4.13-14.3,6.31-22.11,6.3-14.61,.76-28.03-8.03-33.17-21.73-1.79-4.83-2.72-9.94-2.76-15.09-.27-15.18,7.71-29.31,20.84-36.93,5.2-2.84,11.04-4.33,16.97-4.31,7.36-.11,14.53,2.33,20.29,6.91,6.44,5.12,10.34,12.79,10.67,21.01,0,6.47-1.88,9.95-11.83,9.95h-36.65c-1.16,0-1.77,.55-1.77,1.55-.03,5.91,1.72,11.69,5.03,16.59,4.31,5.98,11.32,9.42,18.69,9.18,13.38,0,18.13-7.35,22.11-7.35,1.6,0,2.9,1.28,2.93,2.87m-47.16-31.79h19.96c7.19,0,10.67-1.71,10.67-7.02-.29-7.54-6.64-13.41-14.18-13.11h-.2c-13.38,0-17.69,15.43-17.69,18.69,0,1.16,.33,1.44,1.44,1.44"/><path class="cls-5" d="M582.39,133.97c.01,1.1-.34,2.16-1,3.04-2.95,3.83-7.55,6.03-12.38,5.92-6.61,.02-12.11-5.07-12.6-11.66h-.61c-5.42,7.58-14.23,12.01-23.55,11.83-11.67,0-22.56-6.8-22.56-18.85,.13-6.82,3.76-13.09,9.62-16.58,7.77-3.82,15.79-7.13,23.99-9.9,7.91-3.76,11.5-7.91,11.5-13.38,.34-4.75-2.82-9.04-7.46-10.12-1.18-.29-2.38-.44-3.59-.44-3.84,.04-7.56,1.4-10.51,3.87-3.26,3.26-6.16,6.88-8.62,10.78-1.03,1.41-2.73,2.19-4.48,2.05-3.7,0-4.7-3.32-4.7-8.07-.19-3.76,.69-7.5,2.54-10.78,3.13-2.98,7.11-4.91,11.39-5.53,4.72-1.06,9.54-1.6,14.38-1.6,17.52,0,29.91,9.78,29.91,24.6,0,10.34-.61,21.56-.61,30.46,0,7.46,.88,11.5,4.04,11.5h2.43c1.49-.09,2.78,1.04,2.87,2.53,0,.11,0,.23,0,.34m-27.64-31.73s0-.44-.44-.44c-.12-.06-.26-.06-.39,0-4.75,3.43-12.66,5.53-18.74,9.62-3.8,2.29-6.17,6.35-6.3,10.78-.13,5.19,3.96,9.5,9.15,9.64,.3,0,.61,0,.91-.02,5.73-.11,10.91-3.45,13.38-8.62,2.18-5.82,3.01-12.06,2.43-18.24v-2.71Z"/><path class="cls-5" d="M622.36,138.17c0,2.16-2.16,3.15-4.75,3.15h-27.64c-2.6,0-4.75-.99-4.75-3.15s1.33-2.76,3.04-3.76c2.19-1.08,3.96-2.85,5.03-5.03,1.63-4.89,2.22-10.07,1.71-15.2V61.27c.39-3.54,0-7.13-1.16-10.5-1.08-1.96-2.89-3.41-5.03-4.04-1.71-.72-3.87-1.55-3.87-3.43s.99-2.88,4.31-3.59c4.84-.96,9.59-2.31,14.21-4.04,1.74-.87,3.61-1.44,5.53-1.71,2.05,0,3.48,.99,3.48,4.31V114.18c-.52,5.09,.06,10.24,1.71,15.09,1.15,2.11,2.83,3.88,4.86,5.14,2.05,1.16,3.32,2.05,3.32,3.76"/><path class="cls-5" d="M675.27,127.83c-.13,1.58-.72,3.08-1.71,4.31-4.73,6.94-12.6,11.09-21.01,11.06-7.55,.4-14.69-3.44-18.52-9.95-2.59-5.52-3.73-11.61-3.32-17.69,0-11.06,1.16-25.15,1.16-35.49,0-.99-.44-1.44-1.44-1.44h-8.96c-1.04,.06-1.93-.73-1.99-1.76,0-.08,0-.15,0-.23v-5.53c0-1.33,.72-1.88,1.99-2.15,5.45-.37,10.38-3.33,13.27-7.96,1.27-3.2,2.12-6.54,2.54-9.95,.33-1.44,1.05-1.99,2.15-1.99h7.79c.98-.06,1.82,.68,1.88,1.65,0,.08,0,.15,0,.23v14.21c0,3.15,.39,3.76,3.59,3.76,7.58,0,10.62-1.05,15.92-1.05,2.6,0,4.92,0,4.92,2.76,0,.99-.44,1.99-.61,3.32-.55,4.15-2.43,5.03-6.58,5.03s-7.91-.61-15.81-.61c-.79-.1-1.51,.46-1.61,1.25-.01,.12-.01,.24,0,.35v17.25c-.42,8.63,.3,17.27,2.16,25.71,1.33,4.33,5.36,7.26,9.9,7.19,6.36,0,8.9-4.86,11.94-4.86,1.34,.06,2.38,1.19,2.33,2.53,0,.02,0,.04,0,.06"/><path class="cls-5" d="M761.07,138c0,2.32-2.16,3.32-4.86,3.32h-27.64c-2.54,0-4.7-1-4.7-3.32s1.44-2.6,2.99-3.59c2.12-1.21,3.86-2.99,5.03-5.14,1.66-4.9,2.24-10.11,1.71-15.26v-20.12c0-9.89-4.86-15.54-13.49-15.54-4.12-.13-8.12,1.43-11.06,4.31-5.2,5.2-6.64,12.94-6.64,31.35-.56,5.15,.04,10.37,1.77,15.26,1.06,2.17,2.76,3.97,4.87,5.14,1.88,1.16,3.04,1.88,3.04,3.59s-2.05,3.32-4.75,3.32h-27.31c-2.76,0-4.75-1-4.75-3.32s1.44-2.6,3.04-3.59c2.11-1.23,3.85-3.01,5.03-5.14,1.46-4.94,1.99-10.12,1.55-15.26V61.27c.37-3.6-.02-7.24-1.16-10.67-.97-1.92-2.69-3.36-4.75-3.98-1.44-.55-3.98-1.27-3.98-3.43s1.11-2.88,4.42-3.59c5.65-1.23,11.2-2.92,16.59-5.03,1-.43,2.07-.67,3.15-.72,1.88,0,3.59,.99,3.59,4.31v38.7c-.03,.3,.19,.58,.49,.61,.04,0,.08,0,.12,0,.19,.01,.37-.1,.44-.28,5.11-8.05,14.01-12.9,23.55-12.83,7.75-.17,15.07,3.55,19.51,9.9,3.43,5.86,4.97,12.64,4.42,19.4v20.29c-.53,5.15,.05,10.36,1.72,15.26,1.09,2.17,2.8,3.96,4.92,5.14,1.71,1.05,3.15,1.94,3.15,3.65"/><path class="cls-5" d="M118.16,220.01c-59.72,0-108.14-48.42-108.14-108.14S58.44,3.73,118.16,3.73s108.14,48.42,108.14,108.14c-.06,59.7-48.44,108.08-108.14,108.14m0-210.75C61.49,9.26,15.55,55.2,15.55,111.87s45.94,102.61,102.61,102.61,102.61-45.94,102.61-102.61c-.09-56.63-45.98-102.52-102.61-102.61"/><path class="cls-5" d="M129.44,178.66h-23.61c-4,.06-7.29-3.13-7.35-7.13v-27.7h4.92v27.64c0,1.25,1.01,2.27,2.27,2.27h23.77c1.25,0,2.27-1.02,2.27-2.27V107.06c0-1.25-1.01-2.27-2.27-2.27h-23.61c-1.25-.03-2.29,.96-2.32,2.21v20.68h-5.03v-20.62c.03-3.98,3.26-7.19,7.24-7.19h23.72c3.98,0,7.21,3.21,7.24,7.19v64.41c-.03,3.98-3.26,7.19-7.24,7.19"/><path class="cls-5" d="M117.79,49.88c-11.39,0-17.66,6.29-17.66,17.73s6.27,17.95,17.66,17.95,17.66-6.54,17.66-17.95-6.27-17.73-17.66-17.73m0,40.65c-14.17,0-22.63-8.57-22.63-22.93s8.46-22.7,22.63-22.7,22.63,8.49,22.63,22.7-8.67,22.93-22.63,22.93"/><path class="cls-3" d="M170.96,137.91h-27.15v-4.92h27.15c.84-.03,1.52-.71,1.55-1.55v-25.1c0-.85-.69-1.55-1.55-1.55h-27.15v-4.92h27.15c3.57,0,6.47,2.9,6.47,6.47v25.1c-.03,3.56-2.91,6.44-6.47,6.47"/><path class="cls-4" d="M124.46,137.91h-60.15c-3.56-.03-6.44-2.91-6.47-6.47v-25.1c0-3.57,2.9-6.47,6.47-6.47h27.14v4.92h-27.14c-.85,0-1.55,.69-1.55,1.55v25.1c.03,.84,.71,1.52,1.55,1.55h60.15v4.92Z"/><path class="cls-5" d="M274.4,180.1h-2.55l-2.01-5.71h-7.41l-1.79,5.71h-2.09l6.49-19.53h2.83l6.53,19.53Zm-5.1-7.54l-3.09-9.38-3.09,9.38h6.18Z"/><path class="cls-5" d="M288.64,160.57v19.53h-2.08v-2.47c-1.04,1.92-2.59,2.88-4.67,2.88-1.73,0-3.15-.71-4.26-2.13-1.11-1.42-1.67-3.21-1.67-5.38s.55-4.06,1.65-5.53c1.1-1.48,2.57-2.21,4.39-2.21s3.22,.79,4.35,2.37v-7.05h2.3Zm-2.3,10.66c0-1.27-.39-2.28-1.18-3.05s-1.71-1.14-2.77-1.14c-1.14,0-2.08,.5-2.82,1.49-.74,.99-1.11,2.38-1.11,4.18,0,1.94,.34,3.41,1.02,4.42,.68,1.01,1.61,1.52,2.79,1.52,1.07,0,2.02-.44,2.84-1.32,.82-.88,1.23-1.91,1.23-3.09v-3Z"/><polygon class="cls-5" points="304.36 165.65 299.25 180.1 296.88 180.1 291.59 165.65 294.14 165.65 298.25 177.39 302.32 165.65 304.36 165.65"/><path class="cls-5" d="M318.88,180.1h-2.27c-.09-.46-.17-1.33-.26-2.6-1.02,2-2.74,3-5.18,3-1.66,0-2.93-.43-3.82-1.29-.89-.86-1.33-1.89-1.33-3.09,0-1.46,.63-2.66,1.9-3.6,1.27-.94,3.42-1.41,6.47-1.41,.41,0,1.06,.02,1.96,.06,0-1.14-.09-1.97-.27-2.48-.18-.51-.56-.92-1.15-1.22s-1.36-.46-2.31-.46c-2.33,0-3.69,.87-4.07,2.6l-2.12-.36c.52-2.66,2.69-3.99,6.52-3.99,2.04,0,3.48,.44,4.34,1.32,.85,.88,1.28,2.41,1.28,4.59v6.14c0,1.02,.1,1.96,.31,2.8m-2.53-7.22c-.94-.06-1.65-.09-2.14-.09-1.81,0-3.22,.29-4.23,.88-1,.58-1.51,1.43-1.51,2.55,0,.71,.27,1.31,.81,1.81,.54,.5,1.32,.75,2.35,.75,1.39,0,2.52-.49,3.42-1.48,.89-.99,1.34-2.14,1.34-3.47,0-.27-.02-.58-.04-.95"/><path class="cls-5" d="M335.11,180.1h-2.15v-9.28c0-1.34-.3-2.28-.89-2.82-.6-.54-1.32-.81-2.17-.81-1.17,0-2.15,.46-2.95,1.37-.79,.91-1.19,2.12-1.19,3.62v7.92h-2.3v-14.45h2.14v2.66c1.2-2.04,2.76-3.06,4.67-3.06,1.1,0,2.04,.28,2.82,.84,.77,.56,1.31,1.19,1.59,1.88,.29,.7,.43,1.96,.43,3.78v8.35Z"/><path class="cls-5" d="M348.74,175.03l2.08,.36c-.29,1.6-.94,2.85-1.95,3.75-1,.9-2.26,1.35-3.76,1.35-2.04,0-3.59-.74-4.66-2.21-1.07-1.47-1.6-3.26-1.6-5.38s.56-4.02,1.69-5.48c1.13-1.45,2.66-2.18,4.6-2.18,1.61,0,2.9,.47,3.87,1.41,.97,.94,1.57,2.15,1.81,3.64l-2.08,.39c-.39-2.38-1.57-3.58-3.53-3.58-1.27,0-2.24,.53-2.92,1.58-.68,1.05-1.02,2.42-1.02,4.1,0,1.85,.34,3.29,1.02,4.31,.68,1.02,1.63,1.54,2.85,1.54,1.9,0,3.1-1.2,3.61-3.6"/><path class="cls-5" d="M356.63,163.07h-2.47v-2.5h2.47v2.5Zm-.07,17.02h-2.3v-14.45h2.3v14.45Z"/><path class="cls-5" d="M373.08,180.1h-2.15v-9.28c0-1.34-.3-2.28-.89-2.82-.6-.54-1.32-.81-2.17-.81-1.17,0-2.15,.46-2.95,1.37-.79,.91-1.19,2.12-1.19,3.62v7.92h-2.3v-14.45h2.14v2.66c1.2-2.04,2.76-3.06,4.67-3.06,1.1,0,2.04,.28,2.82,.84,.77,.56,1.31,1.19,1.59,1.88,.29,.7,.43,1.96,.43,3.78v8.35Z"/><path class="cls-5" d="M390.05,163.39v1.79c-1.05,0-1.76,.12-2.11,.36-.36,.24-.59,.67-.71,1.29,.95,1.07,1.42,2.23,1.42,3.49s-.51,2.45-1.54,3.39c-1.03,.94-2.41,1.42-4.15,1.42-.39,0-.73-.03-1.01-.08-.54-.1-.87-.16-1.01-.16-.26,0-.58,.13-.95,.38-.37,.25-.56,.58-.56,.98,0,.57,.27,.94,.8,1.12,.54,.17,1.8,.28,3.79,.33,1.69,.05,2.93,.16,3.74,.34,.8,.18,1.49,.57,2.04,1.17,.56,.61,.83,1.35,.83,2.22,0,2.76-2.48,4.13-7.43,4.13-2.35,0-4.07-.35-5.14-1.04-1.08-.69-1.62-1.62-1.62-2.77,0-1.4,.75-2.37,2.25-2.89-.97-.62-1.45-1.4-1.45-2.33,0-1.11,.68-1.97,2.05-2.56-1.28-1.01-1.92-2.28-1.92-3.82,0-1.43,.55-2.6,1.64-3.52,1.09-.91,2.42-1.37,3.99-1.37,1.11,0,2.12,.2,3.03,.61,.14-.94,.48-1.6,1.02-1.96s1.34-.54,2.42-.54c.11,0,.3,0,.57,.03m-9.77,16.12c-1.07,.46-1.61,1.12-1.61,1.99,0,.73,.44,1.3,1.32,1.71,.88,.41,2.01,.61,3.37,.61,1.27,0,2.43-.17,3.48-.52,1.05-.35,1.58-.94,1.58-1.77,0-.45-.16-.81-.47-1.1-.31-.29-.74-.47-1.28-.54-.54-.08-1.48-.13-2.83-.17-1.61-.04-2.8-.11-3.57-.2m2.75-6.11c.98,0,1.77-.29,2.38-.88,.61-.59,.92-1.35,.92-2.28s-.32-1.73-.96-2.34c-.64-.61-1.41-.91-2.32-.91s-1.64,.28-2.31,.85c-.67,.57-1.01,1.38-1.01,2.42,0,.93,.3,1.69,.91,2.27,.61,.58,1.4,.87,2.39,.87"/><path class="cls-5" d="M407.49,178.57v1.77c-.81,.11-1.51,.16-2.11,.16-2.86,0-4.29-1.46-4.29-4.38v-8.71h-2.62v-1.76h2.62l.1-3.63,2.14-.2v3.83h3.31v1.76h-3.31v9.08c0,1.49,.79,2.23,2.37,2.23,.53,0,1.12-.05,1.78-.16"/><path class="cls-5" d="M421.89,180.1h-2.3v-8.77c0-1.03-.07-1.8-.2-2.32-.13-.51-.44-.96-.94-1.34-.49-.38-1.06-.57-1.7-.57-1.18,0-2.17,.47-2.96,1.42-.8,.94-1.19,2.21-1.19,3.79v7.78h-2.3v-19.53h2.3v7.74c1.04-2.04,2.54-3.06,4.48-3.06,.87,0,1.64,.17,2.32,.5,.68,.33,1.2,.77,1.56,1.32,.36,.54,.61,1.08,.74,1.61,.13,.53,.2,1.41,.2,2.65v8.77Z"/><path class="cls-5" d="M436.54,175.79l2.14,.43c-.39,1.24-1.15,2.26-2.28,3.06-1.13,.81-2.46,1.21-3.99,1.21-2.02,0-3.65-.69-4.9-2.08-1.25-1.39-1.87-3.21-1.87-5.46s.65-4.16,1.95-5.58c1.3-1.42,2.93-2.13,4.89-2.13s3.48,.65,4.66,1.96c1.18,1.31,1.78,3.26,1.81,5.86h-10.74c0,2.18,.47,3.66,1.4,4.42,.94,.76,1.93,1.15,2.97,1.15,1.88,0,3.21-.95,3.98-2.85m-.13-4.39c-.02-.81-.16-1.53-.41-2.16-.25-.63-.68-1.17-1.29-1.61-.61-.44-1.33-.67-2.18-.67-1.14,0-2.11,.4-2.9,1.2-.79,.8-1.24,1.88-1.34,3.23h8.12Z"/><path class="cls-5" d="M465.46,170.26v10.11h-1.53l-.69-2.45c-1.23,1.72-3.06,2.58-5.49,2.58-2.64,0-4.68-.97-6.15-2.91-1.46-1.94-2.2-4.29-2.2-7.06,0-2.96,.78-5.42,2.33-7.4,1.55-1.98,3.66-2.96,6.32-2.96,3.68,0,6.08,1.89,7.2,5.66l-2.37,.56c-.34-1.45-.98-2.5-1.92-3.16-.94-.66-1.96-.99-3.07-.99-1.97,0-3.42,.78-4.36,2.33-.94,1.56-1.4,3.51-1.4,5.86,0,2.53,.52,4.51,1.57,5.93,1.05,1.43,2.48,2.14,4.28,2.14,1.41,0,2.58-.46,3.52-1.37,.94-.91,1.41-2.17,1.41-3.78,0-.3-.01-.65-.03-1.06h-4.95v-2.05h7.52Z"/><rect class="cls-5" x="470.15" y="160.57" width="2.3" height="19.53"/><path class="cls-5" d="M482.64,180.5c-2.03,0-3.61-.73-4.75-2.21-1.14-1.47-1.7-3.29-1.7-5.47,0-2.3,.64-4.14,1.92-5.51,1.28-1.38,2.87-2.06,4.77-2.06,2.04,0,3.65,.72,4.82,2.17,1.18,1.45,1.76,3.25,1.76,5.42s-.63,4.09-1.9,5.52c-1.27,1.43-2.91,2.14-4.92,2.14m.18-1.86c1.17,0,2.15-.47,2.94-1.42,.79-.94,1.19-2.41,1.19-4.41s-.42-3.45-1.24-4.36c-.83-.9-1.8-1.35-2.91-1.35s-2.11,.45-2.9,1.36c-.79,.91-1.18,2.35-1.18,4.33,0,2.09,.39,3.58,1.18,4.49,.79,.9,1.76,1.35,2.93,1.35"/><path class="cls-5" d="M494.32,180.1h-1.11v-19.53h2.3v7.48c1.05-1.87,2.51-2.8,4.36-2.8,1.7,0,3.12,.65,4.27,1.96,1.15,1.31,1.72,3.21,1.72,5.7,0,2.15-.56,3.95-1.69,5.4-1.13,1.46-2.59,2.18-4.39,2.18-2.01,0-3.55-.93-4.62-2.79l-.82,2.39Zm1.18-5.67c.11,1.48,.57,2.56,1.4,3.23,.83,.67,1.7,1.01,2.62,1.01,1.17,0,2.12-.5,2.84-1.49,.72-.99,1.08-2.35,1.08-4.08,0-1.86-.35-3.33-1.04-4.39-.69-1.06-1.66-1.6-2.89-1.6-.97,0-1.84,.38-2.62,1.14-.78,.76-1.24,1.74-1.39,2.94v3.25Z"/><path class="cls-5" d="M521.16,180.1h-2.27c-.09-.46-.18-1.33-.26-2.6-1.01,2-2.74,3-5.18,3-1.66,0-2.93-.43-3.82-1.29-.89-.86-1.33-1.89-1.33-3.09,0-1.46,.63-2.66,1.9-3.6,1.27-.94,3.42-1.41,6.47-1.41,.41,0,1.06,.02,1.96,.06,0-1.14-.09-1.97-.27-2.48-.18-.51-.56-.92-1.15-1.22-.59-.31-1.35-.46-2.31-.46-2.33,0-3.69,.87-4.07,2.6l-2.12-.36c.52-2.66,2.69-3.99,6.53-3.99,2.04,0,3.48,.44,4.34,1.32,.85,.88,1.28,2.41,1.28,4.59v6.14c0,1.02,.1,1.96,.31,2.8m-2.53-7.22c-.94-.06-1.65-.09-2.14-.09-1.81,0-3.22,.29-4.23,.88-1.01,.58-1.51,1.43-1.51,2.55,0,.71,.27,1.31,.81,1.81,.54,.5,1.32,.75,2.35,.75,1.39,0,2.52-.49,3.42-1.48,.89-.99,1.34-2.14,1.34-3.47,0-.27-.02-.58-.04-.95"/><rect class="cls-5" x="525.75" y="160.57" width="2.3" height="19.53"/><polygon class="cls-5" points="555.2 180.1 552.69 180.1 552.69 170.8 543.43 170.8 543.43 180.1 540.93 180.1 540.93 160.57 543.43 160.57 543.43 168.65 552.69 168.65 552.69 160.57 555.2 160.57 555.2 180.1"/><path class="cls-5" d="M570.04,175.79l2.14,.43c-.39,1.24-1.15,2.26-2.28,3.06-1.13,.81-2.46,1.21-3.99,1.21-2.02,0-3.65-.69-4.9-2.08-1.25-1.39-1.87-3.21-1.87-5.46s.65-4.16,1.95-5.58c1.3-1.42,2.93-2.13,4.89-2.13s3.48,.65,4.66,1.96c1.18,1.31,1.78,3.26,1.81,5.86h-10.74c0,2.18,.47,3.66,1.41,4.42,.94,.76,1.93,1.15,2.97,1.15,1.88,0,3.21-.95,3.98-2.85m-.13-4.39c-.02-.81-.16-1.53-.41-2.16-.25-.63-.68-1.17-1.29-1.61-.61-.44-1.33-.67-2.18-.67-1.14,0-2.11,.4-2.9,1.2-.79,.8-1.24,1.88-1.34,3.23h8.12Z"/><path class="cls-5" d="M587.73,180.1h-2.27c-.09-.46-.18-1.33-.26-2.6-1.01,2-2.74,3-5.18,3-1.66,0-2.93-.43-3.82-1.29-.89-.86-1.33-1.89-1.33-3.09,0-1.46,.63-2.66,1.9-3.6,1.27-.94,3.42-1.41,6.47-1.41,.41,0,1.06,.02,1.96,.06,0-1.14-.09-1.97-.27-2.48-.18-.51-.56-.92-1.15-1.22-.59-.31-1.35-.46-2.31-.46-2.33,0-3.69,.87-4.07,2.6l-2.12-.36c.52-2.66,2.69-3.99,6.53-3.99,2.04,0,3.48,.44,4.34,1.32,.85,.88,1.28,2.41,1.28,4.59v6.14c0,1.02,.1,1.96,.31,2.8m-2.53-7.22c-.94-.06-1.65-.09-2.14-.09-1.81,0-3.22,.29-4.23,.88-1.01,.58-1.51,1.43-1.51,2.55,0,.71,.27,1.31,.81,1.81,.54,.5,1.33,.75,2.35,.75,1.39,0,2.52-.49,3.42-1.48,.89-.99,1.34-2.14,1.34-3.47,0-.27-.02-.58-.04-.95"/><rect class="cls-5" x="592.32" y="160.57" width="2.3" height="19.53"/><path class="cls-5" d="M606.21,178.57v1.77c-.81,.11-1.51,.16-2.11,.16-2.86,0-4.29-1.46-4.29-4.38v-8.71h-2.62v-1.76h2.62l.1-3.63,2.14-.2v3.83h3.31v1.76h-3.31v9.08c0,1.49,.79,2.23,2.37,2.23,.53,0,1.12-.05,1.78-.16"/><path class="cls-5" d="M620.61,180.1h-2.3v-8.77c0-1.03-.07-1.8-.2-2.32-.13-.51-.44-.96-.94-1.34-.49-.38-1.06-.57-1.7-.57-1.18,0-2.17,.47-2.96,1.42-.79,.94-1.19,2.21-1.19,3.79v7.78h-2.3v-19.53h2.3v7.74c1.04-2.04,2.54-3.06,4.48-3.06,.87,0,1.64,.17,2.32,.5,.68,.33,1.2,.77,1.56,1.32,.36,.54,.61,1.08,.74,1.61,.13,.53,.2,1.41,.2,2.65v8.77Z"/><polygon class="cls-5" points="654.92 160.57 650.12 180.1 647.61 180.1 643.25 164.95 639.21 180.1 636.64 180.1 631.57 160.57 634.16 160.57 638.16 176.39 642.4 160.57 644.43 160.57 649 176.39 652.73 160.57 654.92 160.57"/><path class="cls-5" d="M663.38,180.5c-2.03,0-3.61-.73-4.75-2.21-1.14-1.47-1.7-3.29-1.7-5.47,0-2.3,.64-4.14,1.92-5.51,1.28-1.38,2.87-2.06,4.77-2.06,2.04,0,3.64,.72,4.82,2.17,1.18,1.45,1.76,3.25,1.76,5.42s-.63,4.09-1.9,5.52c-1.27,1.43-2.91,2.14-4.92,2.14m.18-1.86c1.17,0,2.15-.47,2.94-1.42,.79-.94,1.19-2.41,1.19-4.41s-.41-3.45-1.24-4.36c-.83-.9-1.8-1.35-2.91-1.35s-2.11,.45-2.9,1.36c-.79,.91-1.18,2.35-1.18,4.33,0,2.09,.4,3.58,1.18,4.49,.79,.9,1.77,1.35,2.93,1.35"/><path class="cls-5" d="M676.25,180.1h-2.3v-14.45h2.02v3.38c.71-1.59,1.43-2.62,2.14-3.1s1.45-.71,2.2-.71c.23,0,.54,.02,.91,.06v2.15h-.47c-1.27,0-2.32,.46-3.16,1.39-.84,.92-1.29,2.14-1.35,3.65v7.64Z"/><polygon class="cls-5" points="696.33 180.1 693.95 180.1 689.63 172.03 686.42 175.63 686.42 180.1 684.13 180.1 684.13 160.57 686.42 160.57 686.42 173.09 693.29 165.65 695.74 165.65 691.13 170.72 696.33 180.1"/><path class="cls-5" d="M705.57,165.65v1.76h-3.51v12.69h-2.3v-12.69h-2.52v-1.76h2.52c.04-2.32,.49-3.81,1.37-4.48,.87-.67,1.94-1,3.2-1,.61,0,1.32,.07,2.11,.2v1.79c-.5-.12-.97-.18-1.42-.18-1,0-1.75,.22-2.23,.65-.48,.43-.72,1.25-.72,2.44v.59h3.51Z"/><path class="cls-5" d="M714.02,180.5c-2.03,0-3.61-.73-4.75-2.21-1.14-1.47-1.7-3.29-1.7-5.47,0-2.3,.64-4.14,1.92-5.51,1.28-1.38,2.87-2.06,4.77-2.06,2.04,0,3.64,.72,4.82,2.17,1.18,1.45,1.76,3.25,1.76,5.42s-.63,4.09-1.9,5.52c-1.27,1.43-2.91,2.14-4.92,2.14m.18-1.86c1.17,0,2.15-.47,2.94-1.42,.79-.94,1.19-2.41,1.19-4.41s-.41-3.45-1.24-4.36c-.83-.9-1.8-1.35-2.91-1.35s-2.11,.45-2.9,1.36c-.79,.91-1.18,2.35-1.18,4.33,0,2.09,.4,3.58,1.18,4.49,.79,.9,1.77,1.35,2.93,1.35"/><path class="cls-5" d="M726.88,180.1h-2.3v-14.45h2.02v3.38c.71-1.59,1.43-2.62,2.14-3.1s1.45-.71,2.2-.71c.23,0,.54,.02,.91,.06v2.15h-.47c-1.27,0-2.32,.46-3.16,1.39-.84,.92-1.29,2.14-1.35,3.65v7.64Z"/><path class="cls-5" d="M743.5,175.03l2.08,.36c-.29,1.6-.94,2.85-1.95,3.75-1.01,.9-2.26,1.35-3.76,1.35-2.04,0-3.59-.74-4.66-2.21-1.07-1.47-1.6-3.26-1.6-5.38s.56-4.02,1.69-5.48c1.13-1.45,2.66-2.18,4.6-2.18,1.61,0,2.9,.47,3.87,1.41,.97,.94,1.57,2.15,1.81,3.64l-2.08,.39c-.39-2.38-1.57-3.58-3.53-3.58-1.27,0-2.24,.53-2.92,1.58-.68,1.05-1.02,2.42-1.02,4.1,0,1.85,.34,3.29,1.02,4.31,.68,1.02,1.63,1.54,2.85,1.54,1.9,0,3.1-1.2,3.61-3.6"/><path class="cls-5" d="M758.78,175.79l2.14,.43c-.39,1.24-1.15,2.26-2.28,3.06-1.13,.81-2.46,1.21-3.99,1.21-2.02,0-3.65-.69-4.9-2.08-1.25-1.39-1.87-3.21-1.87-5.46s.65-4.16,1.95-5.58c1.3-1.42,2.93-2.13,4.89-2.13s3.48,.65,4.66,1.96c1.18,1.31,1.78,3.26,1.81,5.86h-10.74c0,2.18,.47,3.66,1.41,4.42,.94,.76,1.93,1.15,2.97,1.15,1.88,0,3.21-.95,3.98-2.85m-.13-4.39c-.02-.81-.16-1.53-.41-2.16-.25-.63-.68-1.17-1.29-1.61-.61-.44-1.33-.67-2.18-.67-1.14,0-2.11,.4-2.9,1.2-.79,.8-1.24,1.88-1.34,3.23h8.12Z"/><path class="cls-5" d="M762.79,39.23c0-.07,.02-.13,.06-.17,.04-.04,.1-.06,.18-.06h8.78c.09,0,.14,.02,.18,.06,.03,.04,.05,.09,.05,.17v1.02c0,.13-.08,.19-.22,.19h-3.17c-.12,0-.18,.05-.18,.14v10.05c0,.16-.07,.24-.21,.24h-1.5c-.14,0-.21-.07-.21-.22v-10.03c0-.12-.06-.18-.18-.18h-3.36c-.15,0-.22-.06-.22-.19v-1.02Z"/><path class="cls-5" d="M774.07,50.6v-11.36c0-.16,.07-.24,.22-.24h2.09c.1,0,.17,.01,.21,.04,.04,.03,.08,.08,.1,.15l3.2,8.4c.04,.1,.09,.14,.13,.14,.04,0,.08-.06,.11-.15l3.15-8.32c.06-.17,.16-.26,.29-.26h2.18c.14,0,.21,.08,.21,.24v11.34c0,.19-.1,.29-.29,.29h-1.38c-.1,0-.16-.02-.21-.06-.04-.04-.06-.1-.06-.2v-8.77c0-.06-.01-.09-.04-.08-.03,.01-.05,.04-.06,.1l-3.29,8.78c-.05,.15-.15,.22-.3,.22h-.96c-.17,0-.28-.07-.34-.21l-3.23-8.7c-.03-.06-.06-.1-.08-.1s-.03,.03-.03,.1v8.69c0,.07-.02,.13-.05,.17-.03,.04-.1,.06-.19,.06h-1.12c-.17,0-.26-.09-.26-.27"/></g></svg>